<?xml version="1.0" standalone="no"?>
<!DOCTYPE svg PUBLIC "-//W3C//DTD SVG 20010904//EN"
 "http://www.w3.org/TR/2001/REC-SVG-20010904/DTD/svg10.dtd">
<svg version="1.0" xmlns="http://www.w3.org/2000/svg"
 width="1417.000000pt" height="590.000000pt" viewBox="0 0 1417.000000 590.000000"
 preserveAspectRatio="xMidYMid meet">

 <style>
    path {
      fill: black;
    }
    @media (prefers-color-scheme: dark) {
      path {
        fill: white;
      }
    }
  </style>

<g transform="translate(0.000000,590.000000) scale(0.100000,-0.100000)"
fill="#000000" stroke="none">
<path d="M0 2950 l0 -2950 7085 0 7085 0 0 2950 0 2950 -7085 0 -7085 0 0
-2950z m12424 1185 c37 -8 87 -26 111 -39 60 -36 130 -118 153 -179 42 -112
44 -92 -107 -973 -79 -459 -150 -843 -161 -873 -49 -131 -171 -249 -308 -297
l-67 -24 -702 0 -703 0 0 85 0 84 703 3 702 3 50 27 c60 32 125 97 154 156 16
31 58 253 157 825 75 430 136 807 137 837 3 103 -61 181 -162 200 -74 14
-10207 14 -10281 0 -29 -6 -73 -20 -97 -32 -55 -27 -128 -105 -153 -161 -21
-48 -290 -1589 -290 -1663 0 -64 31 -125 82 -160 l41 -29 899 -3 898 -2 0 -85
0 -85 -912 2 -913 3 -59 29 c-77 38 -141 102 -174 174 -51 112 -49 130 106
1028 150 863 150 861 230 967 72 95 197 168 317 187 28 4 2352 8 5165 9 4440
1 5124 -1 5184 -14z m-3062 -1100 c115 -346 211 -638 214 -647 5 -17 -6 -18
-128 -18 l-134 0 -25 78 -25 77 -229 0 -229 0 -25 -77 -25 -78 -134 0 c-103 0
-133 3 -129 13 4 10 355 1089 403 1240 l16 48 121 -3 121 -3 208 -630z m-6397
589 c246 -64 436 -277 476 -535 47 -301 -147 -609 -445 -705 -68 -23 -99 -27
-196 -27 -97 0 -128 4 -197 27 -196 64 -355 223 -420 420 -22 68 -26 99 -26
196 0 100 3 126 28 199 112 329 448 512 780 425z m3848 0 c75 -19 168 -65 227
-112 25 -20 47 -37 49 -39 3 -2 -35 -44 -84 -93 l-88 -89 -44 31 c-76 52 -146
71 -243 66 -104 -5 -176 -35 -248 -102 -250 -234 -101 -654 239 -674 99 -6
164 10 241 60 l61 40 84 -84 c45 -45 83 -87 83 -93 0 -18 -92 -82 -172 -120
-247 -118 -531 -65 -729 135 -252 253 -252 647 0 900 170 172 393 234 624 174z
m3562 5 c167 -31 302 -171 321 -332 l7 -57 -125 0 -125 0 -11 38 c-6 21 -25
51 -42 67 l-31 30 -194 3 c-163 3 -199 1 -225 -13 -65 -34 -90 -127 -50 -192
33 -55 55 -60 280 -65 182 -4 211 -7 263 -27 217 -84 318 -332 218 -535 -40
-82 -128 -165 -208 -198 -55 -22 -70 -23 -293 -23 l-235 0 -67 32 c-124 58
-210 172 -227 298 -4 30 -5 57 -3 60 3 3 59 5 124 5 104 0 119 -2 124 -17 14
-48 42 -89 74 -108 32 -18 52 -20 215 -20 170 0 182 1 217 23 77 48 86 152 18
217 l-31 30 -217 6 c-193 5 -223 8 -275 28 -107 42 -193 131 -232 241 -21 57
-21 180 -1 244 40 130 163 238 300 266 62 12 364 12 431 -1z m1251 0 c169 -31
301 -171 321 -341 l6 -48 -125 0 -125 0 -11 38 c-6 21 -25 51 -42 67 l-31 30
-194 3 c-216 4 -239 -2 -275 -61 -39 -63 -15 -158 47 -190 21 -11 82 -16 233
-19 182 -4 211 -7 263 -27 217 -85 318 -333 217 -537 -39 -80 -128 -164 -207
-196 -55 -22 -70 -23 -293 -23 l-235 0 -67 32 c-122 58 -207 168 -227 295 -5
29 -7 56 -4 61 2 4 58 7 124 7 105 0 120 -2 125 -17 14 -48 42 -89 74 -108 32
-18 52 -20 215 -20 170 0 182 1 216 23 68 42 86 135 38 196 -40 51 -64 56
-253 56 -96 0 -199 5 -228 11 -250 53 -384 327 -272 556 50 102 164 190 274
212 65 13 366 13 436 0z m-7783 -391 c2 -296 6 -402 16 -430 25 -67 82 -130
150 -165 54 -28 73 -33 135 -33 123 0 228 67 280 179 20 44 21 64 24 444 l3
397 125 0 125 0 -3 -422 -3 -423 -26 -66 c-72 -185 -224 -314 -420 -355 -229
-49 -481 72 -593 285 -62 119 -66 150 -66 589 l0 392 124 0 125 0 4 -392z
m2097 267 l0 -125 -212 -2 -213 -3 -3 -502 -2 -503 -125 0 -125 0 0 505 0 505
-195 0 -195 0 0 125 0 125 535 0 535 0 0 -125z m1540 -380 l0 -505 415 0 415
0 0 -125 0 -125 -545 0 -545 0 0 630 0 630 130 0 130 0 0 -505z m-3244 -1064
c53 -24 61 -38 37 -62 -18 -18 -21 -19 -49 -4 -59 31 -139 11 -162 -40 -7 -14
-12 -46 -12 -71 0 -37 6 -51 29 -75 25 -24 38 -29 78 -29 28 0 58 7 71 16 22
15 25 15 47 -6 29 -28 25 -36 -29 -61 -130 -59 -265 22 -266 159 0 90 39 150
117 177 52 19 91 18 139 -4z m662 -148 c96 -214 91 -193 48 -193 -29 0 -38 5
-51 30 -15 30 -16 30 -105 30 -89 0 -90 0 -105 -30 -13 -25 -22 -30 -50 -30
-19 0 -35 2 -35 5 0 4 108 249 140 318 11 22 20 27 50 27 l37 0 71 -157z m662
142 c37 -19 60 -62 60 -111 0 -30 -7 -44 -38 -74 l-39 -36 50 -57 49 -57 -43
0 c-41 0 -48 4 -92 55 -38 43 -55 55 -78 55 -29 0 -29 -1 -29 -55 l0 -55 -35
0 -35 0 0 175 0 175 100 0 c71 0 110 -5 130 -15z m1489 -14 c68 -49 91 -160
48 -235 -39 -70 -64 -81 -188 -84 l-109 -4 0 177 0 177 108 -4 c94 -3 111 -6
141 -27z m691 -6 l0 -35 -100 0 -100 0 0 -35 0 -35 95 0 95 0 0 -35 0 -35 -95
0 -95 0 0 -35 0 -35 100 0 100 0 0 -35 0 -35 -135 0 -135 0 0 175 0 175 135 0
135 0 0 -35z m650 5 c0 -30 -1 -30 -55 -30 l-55 0 0 -145 0 -145 -35 0 -35 0
0 145 0 145 -55 0 c-54 0 -55 0 -55 30 l0 30 145 0 145 0 0 -30z m612 -105
c33 -71 68 -149 78 -172 l19 -43 -38 0 c-33 0 -40 4 -51 30 l-12 30 -93 0 -93
0 -12 -30 c-11 -26 -18 -30 -51 -30 l-39 0 26 58 c14 31 48 110 77 175 l52
117 39 -2 40 -3 58 -130z m498 -40 l0 -175 -30 0 -30 0 0 175 0 175 30 0 30 0
0 -175z m450 30 l0 -145 90 0 90 0 0 -30 0 -30 -125 0 -125 0 0 175 0 175 35
0 35 0 0 -145z"/>
<path d="M8964 3009 l-70 -214 134 -3 c74 -1 137 -1 139 2 2 2 -26 99 -64 216
l-68 212 -71 -213z"/>
<path d="M2683 3376 c-104 -34 -194 -114 -241 -214 -24 -50 -27 -69 -27 -162
0 -99 2 -110 32 -171 39 -80 111 -150 191 -187 50 -24 69 -27 162 -27 99 0
110 2 171 32 80 39 150 111 187 191 24 50 27 69 27 162 0 93 -3 112 -27 162
-37 80 -107 152 -186 190 -56 28 -77 33 -156 35 -57 2 -107 -2 -133 -11z"/>
<path d="M4757 1918 c-15 -34 -25 -63 -23 -65 2 -2 29 -3 59 -1 l55 3 -26 63
c-14 34 -28 62 -31 62 -4 0 -19 -28 -34 -62z"/>
<path d="M5400 1955 l0 -55 64 0 c71 0 89 12 84 57 -4 35 -37 53 -100 53 l-48
0 0 -55z"/>
<path d="M6870 1896 c0 -62 4 -107 10 -111 6 -4 34 -4 62 0 73 10 108 46 108
110 0 38 -5 52 -29 76 -26 26 -36 29 -90 29 l-61 0 0 -104z"/>
<path d="M8873 1920 l-31 -70 59 0 c68 0 67 -4 25 91 l-22 50 -31 -71z"/>
</g>
</svg>
