<?xml version="1.0" standalone="no"?>
<!DOCTYPE svg PUBLIC "-//W3C//DTD SVG 20010904//EN"
 "http://www.w3.org/TR/2001/REC-SVG-20010904/DTD/svg10.dtd">
<svg version="1.0" xmlns="http://www.w3.org/2000/svg"
 width="1417.000000pt" height="590.000000pt" viewBox="0 0 1417.000000 590.000000"
 preserveAspectRatio="xMidYMid meet">

 <style>
    path {
      fill: black;
    }
    @media (prefers-color-scheme: dark) {
      path {
        fill: white;
      }
    }
  </style>

<g transform="translate(0.000000,590.000000) scale(0.100000,-0.100000)"
fill="#000000" stroke="none">
<path d="M2010 4121 c-83 -27 -131 -55 -193 -111 -62 -56 -109 -124 -132 -190
-9 -25 -79 -409 -156 -855 -113 -649 -140 -823 -136 -875 8 -134 90 -249 215
-308 l57 -27 903 -3 902 -3 0 80 0 80 -882 3 -883 3 -42 22 c-52 28 -88 75
-103 133 -10 41 1 118 129 859 105 604 147 826 163 860 30 62 98 127 166 159
l57 27 5165 0 5165 0 47 -27 c52 -31 98 -108 98 -164 0 -17 -62 -393 -139
-836 -105 -609 -144 -814 -160 -847 -32 -61 -103 -128 -169 -159 l-57 -27
-692 -3 -693 -3 0 -79 0 -80 688 0 c750 0 749 0 855 58 109 59 212 181 242
287 8 27 76 406 151 840 151 877 152 889 102 996 -36 79 -89 133 -166 171
l-67 33 -5190 2 c-4952 2 -5193 1 -5245 -16z"/>
<path d="M8916 3661 c-3 -5 -83 -244 -176 -532 -94 -288 -188 -577 -210 -642
l-39 -118 131 3 131 3 27 80 27 80 228 0 228 0 27 -80 27 -80 132 -3 c73 -1
131 1 128 5 -2 4 -100 297 -216 651 l-212 642 -114 0 c-62 0 -116 -4 -119 -9z
m193 -660 l69 -211 -145 0 c-112 0 -144 3 -141 13 4 10 120 363 134 406 2 8 7
11 10 8 3 -3 36 -100 73 -216z"/>
<path d="M2620 3617 c-93 -29 -138 -52 -217 -112 -107 -80 -193 -213 -229
-355 -24 -96 -16 -272 18 -362 71 -189 205 -323 396 -396 61 -24 80 -26 212
-26 132 0 151 2 212 26 191 73 323 205 396 396 24 61 26 80 26 212 0 132 -2
151 -26 212 -74 193 -224 340 -408 400 -47 15 -98 22 -185 24 -104 4 -130 1
-195 -19z m246 -228 c212 -39 361 -246 325 -451 -38 -217 -244 -366 -453 -329
-168 29 -298 158 -329 325 -22 120 14 236 101 329 64 69 126 105 210 123 71
16 76 16 146 3z"/>
<path d="M6490 3624 c-229 -61 -405 -237 -466 -465 -22 -84 -23 -234 -1 -318
46 -175 174 -334 329 -410 109 -54 182 -71 296 -71 150 0 283 45 393 131 l51
41 -87 88 -88 89 -31 -24 c-88 -66 -198 -94 -298 -76 -221 39 -367 238 -330
453 50 291 383 430 620 259 l39 -29 88 88 87 88 -51 41 c-66 51 -159 96 -242
116 -81 19 -237 18 -309 -1z"/>
<path d="M3592 3218 c3 -402 4 -415 27 -478 65 -183 209 -318 388 -365 31 -8
97 -15 146 -15 233 0 432 144 519 376 21 57 22 74 26 477 l3 417 -125 0 -126
0 0 -388 c0 -445 0 -448 -81 -536 -64 -70 -130 -100 -224 -100 -57 0 -81 5
-127 27 -65 32 -121 89 -152 156 -20 44 -21 62 -24 444 l-3 397 -125 0 -125 0
3 -412z"/>
<path d="M4870 3505 l0 -125 195 0 195 0 0 -505 0 -505 125 0 125 0 0 505 0
505 215 0 215 0 0 125 0 125 -535 0 -535 0 0 -125z"/>
<path d="M7230 3000 l0 -630 535 0 535 0 0 125 0 125 -415 0 -415 0 0 505 0
505 -120 0 -120 0 0 -630z"/>
<path d="M9903 3616 c-103 -33 -194 -114 -241 -214 -24 -50 -27 -70 -27 -157
0 -88 3 -107 27 -157 35 -76 109 -153 183 -191 l60 -31 220 -6 c196 -4 224 -7
254 -25 96 -57 91 -196 -10 -247 -28 -15 -62 -18 -202 -18 -119 0 -177 4 -200
14 -42 17 -87 70 -87 102 l0 24 -126 0 -127 0 6 -50 c10 -81 52 -162 118 -225
97 -93 177 -115 414 -115 165 0 237 10 310 44 156 71 249 255 215 423 -29 141
-122 247 -256 293 -49 17 -84 20 -246 20 -209 0 -236 6 -281 59 -22 27 -27 42
-27 86 0 46 5 59 31 89 17 20 47 40 67 46 49 13 317 13 366 -1 47 -13 92 -57
101 -99 l7 -30 124 0 c72 0 124 4 124 10 0 5 -5 33 -11 62 -25 118 -105 220
-214 274 l-60 29 -235 2 c-175 2 -246 -1 -277 -11z"/>
<path d="M11153 3616 c-103 -33 -194 -114 -241 -214 -24 -50 -27 -70 -27 -157
0 -89 3 -107 28 -160 35 -76 105 -148 182 -188 l60 -31 220 -6 c206 -5 222 -6
256 -28 95 -58 88 -194 -12 -244 -28 -15 -62 -18 -202 -18 -119 0 -177 4 -200
14 -42 17 -87 70 -87 102 l0 24 -126 0 -127 0 6 -51 c14 -117 105 -243 212
-294 28 -13 81 -29 116 -34 80 -13 325 -14 402 -1 168 27 293 147 327 314 38
186 -78 380 -261 437 -50 16 -93 19 -245 19 -205 0 -232 6 -277 59 -22 27 -27
42 -27 86 0 46 5 59 31 89 17 20 47 40 67 46 49 13 317 13 366 -1 47 -13 92
-57 101 -99 l7 -30 124 0 c72 0 124 4 124 10 0 5 -5 33 -11 62 -25 118 -105
220 -214 274 l-60 29 -235 2 c-175 2 -246 -1 -277 -11z"/>
<path d="M4090 2063 c-38 -15 -74 -50 -91 -87 -67 -147 50 -292 206 -257 27 7
59 18 70 27 19 14 19 14 -1 34 -19 20 -22 20 -59 4 -103 -43 -200 45 -165 150
16 51 53 76 109 76 26 0 56 -7 67 -15 19 -13 23 -12 43 9 l22 23 -28 19 c-28
19 -142 30 -173 17z"/>
<path d="M4680 1903 c-41 -92 -76 -170 -78 -175 -2 -4 12 -8 30 -8 29 0 37 5
51 35 l17 35 90 0 91 0 15 -35 c12 -31 19 -35 50 -35 19 0 33 3 31 8 -2 4 -37
82 -78 174 l-74 168 -35 0 -36 0 -74 -167z m139 29 c13 -31 25 -63 28 -69 4
-10 -11 -13 -57 -13 -70 0 -67 -7 -27 87 12 29 24 53 27 53 3 0 16 -26 29 -58z"/>
<path d="M5330 1895 l0 -175 30 0 30 0 0 60 0 60 33 0 c27 0 41 -10 85 -60 46
-51 58 -60 88 -60 19 0 34 3 34 6 0 3 -20 29 -45 56 -25 28 -45 53 -45 57 1 3
15 15 32 26 79 50 50 180 -43 199 -18 3 -69 6 -115 6 l-84 0 0 -175z m204 99
c21 -20 20 -68 0 -85 -10 -9 -41 -14 -78 -14 l-61 0 -3 58 -3 57 65 0 c45 0
69 -5 80 -16z"/>
<path d="M6810 1896 l0 -176 87 0 c105 0 160 22 195 78 29 47 31 131 4 184
-30 62 -74 82 -188 86 l-98 4 0 -176z m185 99 c38 -19 55 -51 55 -106 0 -73
-45 -109 -136 -109 l-44 0 0 115 0 115 46 0 c25 0 61 -7 79 -15z"/>
<path d="M7480 1895 l0 -175 130 0 130 0 0 30 0 30 -100 0 -100 0 0 40 0 40
95 0 95 0 0 30 0 30 -95 0 -95 0 0 45 0 45 100 0 100 0 0 30 0 30 -130 0 -130
0 0 -175z"/>
<path d="M8110 2040 c0 -30 1 -30 55 -30 l55 0 0 -145 0 -145 30 0 30 0 0 145
0 145 55 0 c54 0 55 0 55 30 l0 30 -140 0 -140 0 0 -30z"/>
<path d="M8856 2038 c-8 -18 -44 -97 -79 -175 l-65 -143 34 0 c29 0 37 5 51
35 l17 36 91 -3 90 -3 14 -32 c12 -28 20 -33 48 -33 42 0 44 -11 -47 192 l-69
153 -36 3 c-32 3 -37 0 -49 -30z m83 -121 l30 -67 -65 0 -64 0 15 35 c8 19 22
51 31 71 8 20 17 34 19 32 2 -2 17 -34 34 -71z"/>
<path d="M9440 1895 l0 -175 30 0 30 0 0 175 0 175 -30 0 -30 0 0 -175z"/>
<path d="M9880 1895 l0 -175 120 0 120 0 0 30 0 30 -90 0 -90 0 0 145 0 145
-30 0 -30 0 0 -175z"/>
</g>
</svg>
